<?xml version="1.0"?>
<svg version="1.1" id="圖層_1" xmlns="http://www.w3.org/2000/svg" x="0" y="0" viewBox="0 0 100 100" xml:space="preserve"><circle cx="65.187" cy="31.814" r="20.814" fill="#f8b26a" stroke="#333" stroke-width="3.5" stroke-miterlimit="10"/><path d="M54.7 89H31.808a3.536 3.536 0 0 1-3.507-3.084l-6.979-54.102h43.866l-6.979 54.102A3.538 3.538 0 0 1 54.7 89z" fill="#fff" stroke="#333" stroke-width="3.5" stroke-miterlimit="10"/><path fill="#77a4bd" stroke="#77a4bd" stroke-width="3.5" stroke-miterlimit="10" d="M52.794 83.625h-19.08l-4.835-37.48h28.75z"/><path fill="none" stroke="#333" stroke-width="3.5" stroke-miterlimit="10" d="M45.986 66.37L13.999 12.459"/><path d="M51.778 49.872l-5.456 1.168a3.371 3.371 0 0 1-4.002-2.591l-.926-4.325a3.371 3.371 0 0 1 2.591-4.002l5.456-1.168c1.82-.39 3.612.77 4.002 2.591l.926 4.325a3.372 3.372 0 0 1-2.591 4.002z" opacity=".5" fill="#e0e0e0"/><metadata xmlns:d="https://loading.io/stock/"><d:name>drink</d:name><d:tags>drink,soft drink,cold pop,tropical,party,ball,lounge,night club</d:tags><d:license>by</d:license><d:slug>go246</d:slug></metadata></svg>